<?xml version="1.0" encoding="utf-8"?>
<!-- Generator: Adobe Illustrator 26.5.0, SVG Export Plug-In . SVG Version: 6.00 Build 0)  -->
<svg version="1.1"
	 id="svg5189" xmlns:sodipodi="http://sodipodi.sourceforge.net/DTD/sodipodi-0.dtd" xmlns:rdf="http://www.w3.org/1999/02/22-rdf-syntax-ns#" xmlns:inkscape="http://www.inkscape.org/namespaces/inkscape" xmlns:dc="http://purl.org/dc/elements/1.1/" xmlns:cc="http://creativecommons.org/ns#" xmlns:svg="http://www.w3.org/2000/svg" inkscape:export-filename="E:\projects\dakotacon\2017\2017logo-dan-10.png" inkscape:export-xdpi="43.66" inkscape:export-ydpi="43.66" inkscape:version="0.92.1 r15371" sodipodi:docname="2017logo-dan-11.svg"
	 xmlns="http://www.w3.org/2000/svg" xmlns:xlink="http://www.w3.org/1999/xlink" x="0px" y="0px" viewBox="0 0 352 435"
	 style="enable-background:new 0 0 352 435;" xml:space="preserve">
<style type="text/css">
	.st0{fill:#222222;}
	.st1{fill:#3E35CC;}
</style>
<sodipodi:namedview  bordercolor="#666666" borderopacity="1.0" fit-margin-bottom="5" fit-margin-left="5" fit-margin-right="5" fit-margin-top="5" id="base" inkscape:current-layer="layer3" inkscape:cx="377.90275" inkscape:cy="382.82611" inkscape:document-units="mm" inkscape:guide-bbox="true" inkscape:lockguides="true" inkscape:pageopacity="0.0" inkscape:pageshadow="2" inkscape:window-height="1017" inkscape:window-maximized="1" inkscape:window-width="1920" inkscape:window-x="-8" inkscape:window-y="-8" inkscape:zoom="0.5" pagecolor="#ffffff" showgrid="false" showguides="false">
	<sodipodi:guide  id="guide5746" inkscape:locked="true" orientation="1,0" position="43.467261,231.0852"></sodipodi:guide>
	<sodipodi:guide  id="guide5748" inkscape:locked="true" orientation="0,1" position="45.404389,232.50261"></sodipodi:guide>
	<sodipodi:guide  id="guide5750" inkscape:locked="true" orientation="1,0" position="158.88583,231.95927"></sodipodi:guide>
	<sodipodi:guide  id="guide5752" inkscape:locked="true" orientation="0,1" position="158.88583,163.67551"></sodipodi:guide>
	<sodipodi:guide  id="guide5757" inkscape:locked="true" orientation="0,1" position="101.13225,96.974519"></sodipodi:guide>
	<sodipodi:guide  id="guide5759" inkscape:locked="true" orientation="1,0" position="101.17625,163.49286"></sodipodi:guide>
	<sodipodi:guide  id="guide5761" inkscape:locked="true" orientation="0,1" position="100.86418,241.48471"></sodipodi:guide>
	<sodipodi:guide  id="guide5763" inkscape:locked="true" orientation="0,1" position="44.100306,114.38718"></sodipodi:guide>
</sodipodi:namedview>
<g id="layer3" transform="translate(46.58289,-50.514342)" inkscape:groupmode="layer" inkscape:label="Layer 2">
	<g id="g6008" transform="translate(-2.3312857)">
		<path id="rect5754" inkscape:connector-curvature="0" class="st0" d="M132.4,64.7c-56.2-0.1-111.5,9-166,25.5V215l31.7-13.1v-87.3
			C41,103.4,84,96.9,127.6,96.5c43.2-0.4,87.1,5.3,131.8,17.2l-293,121.4l0,0v36.4c0,4,0,9.7,0,13.6C-33.6,425,130,474.3,130,474.3
			s163.6-49.3,163.6-189c0-50.7,0-111.2,0-149.4V99.4c0-0.6,0-9.2,0-9.2C238.9,72.8,185.2,64.7,132.4,64.7z M261.9,149v136.2
			c0,57.5-32.6,95-68.8,121.3c-28.8,21-52.6,30.1-63.1,33.8c-10.5-3.7-34.3-12.8-63.1-33.8C30.8,380.2-1.9,342.7-1.9,285.2v-26.8
			L261.9,149z"/>
		<path id="path5791" inkscape:connector-curvature="0" class="st1" d="M245,173.5l-104,43.2c13.4,2.1,24.4,11.7,28.4,24.7L245,210
			C245,197.7,245,184.8,245,173.5z M106.6,231l-91.7,38v16.3c0,6.9,0.5,13.4,1.5,19.6l87.6-36.4c-2.8-5.1-4.2-10.9-4.2-16.7
			C99.8,244.3,102.2,237,106.6,231z M245,238l-79.7,33.1c-4.2,6.6-10.5,11.6-17.8,14.2l8.7,26.1l88.8-36.9
			C245,262,245,250.7,245,238z M122,289.1L23.4,330c4.4,10.8,10.3,20.5,17.3,29.3l67.3-27.9L122,289.1z M242.3,311.4l-75.7,31.4
			L177,374H93.7l0.4-1.1l-28.2,11.7c3.5,2.9,7.1,5.7,10.8,8.4c22.4,16.3,40.7,24.5,53.2,29.4c12.5-4.9,30.8-13.1,53.2-29.4
			C210.6,372.9,234.5,347.7,242.3,311.4z"/>
	</g>
	<g id="text4506">
		<path id="path4512" class="st1" d="M-191.4,540.1c0,7.8-1.8,14.8-5.3,20.9c-3.6,6.1-8,10.9-13.5,14.2c-4.1,2.5-8.6,4.2-13.4,5.2
			c-4.9,1-10.6,1.5-17.3,1.5h-29.5v-83.6h30.3c6.8,0,12.7,0.6,17.6,1.7c4.9,1.1,9.1,2.7,12.5,4.8c5.8,3.5,10.3,8.3,13.6,14.3
			C-193.1,525-191.4,532-191.4,540.1z M-213.7,539.9c0-5.5-1-10.2-3-14.1c-2-3.9-5.1-7-9.5-9.2c-2.2-1.1-4.5-1.8-6.8-2.2
			c-2.3-0.4-5.7-0.6-10.4-0.6h-5.4v52.3h5.4c5.1,0,8.9-0.2,11.3-0.7s4.7-1.3,7-2.6c3.9-2.2,6.8-5.2,8.6-9
			C-214.6,550.1-213.7,545.4-213.7,539.9z"/>
		<path id="path4514" class="st1" d="M-97.7,581.8H-120l-5.8-16.9h-31l-5.8,16.9h-21.7l30.9-83.6h24.8L-97.7,581.8z M-131,549.6
			l-10.3-30l-10.3,30H-131z"/>
		<path id="path4516" class="st1" d="M-7.5,581.8H-34l-25-33.5l-5.1,6.1v27.3h-21.6v-83.6H-64V536l29.9-37.8h25l-32.7,38.7
			L-7.5,581.8z"/>
		<path id="path4518" class="st1" d="M84.5,540c0,13.3-3.8,23.9-11.5,31.8c-7.6,7.8-18.2,11.7-31.7,11.7c-13.4,0-24-3.9-31.6-11.7
			C2.1,563.9-1.8,553.3-1.8,540c0-13.4,3.8-24.1,11.5-31.8c7.6-7.8,18.2-11.7,31.6-11.7s23.9,3.9,31.6,11.7
			C80.6,516,84.5,526.6,84.5,540L84.5,540z M55.9,561.2c2.1-2.5,3.6-5.5,4.7-9c1-3.5,1.5-7.6,1.5-12.2c0-5-0.6-9.3-1.7-12.8
			c-1.2-3.5-2.7-6.4-4.5-8.5c-1.9-2.2-4.1-3.9-6.6-4.9s-5.1-1.5-7.7-1.5c-2.7,0-5.3,0.5-7.7,1.5c-2.4,1-4.6,2.6-6.6,4.8
			c-1.9,2.1-3.4,5-4.6,8.7s-1.7,7.9-1.7,12.8c0,5,0.6,9.2,1.7,12.7c1.2,3.5,2.7,6.3,4.5,8.5c1.9,2.2,4.1,3.8,6.6,4.9
			c2.5,1,5.1,1.6,7.9,1.6s5.4-0.5,7.9-1.6C51.8,565.1,54,563.4,55.9,561.2L55.9,561.2z"/>
		<path id="path4520" class="st1" d="M166.3,514.4h-26.1v67.4h-21.6v-67.4H92.5v-16.2h73.8V514.4z"/>
		<path id="path4522" class="st1" d="M256.5,581.8h-22.3l-5.8-16.9h-31l-5.8,16.9h-21.7l30.9-83.6h24.8L256.5,581.8z M223.2,549.6
			l-10.3-30l-10.3,30H223.2z"/>
		<path id="path4524" class="st0" d="M306.4,583.4c-6.2,0-12-0.9-17.2-2.8c-5.2-1.8-9.8-4.6-13.5-8.2c-3.8-3.6-6.7-8.2-8.8-13.6
			c-2.1-5.4-3.1-11.7-3.1-18.8c0-6.6,1-12.6,3-18s4.9-10,8.6-13.9c3.6-3.7,8.1-6.6,13.5-8.6s11.3-3,17.6-3c3.5,0,6.7,0.2,9.5,0.6
			s5.5,0.9,7.9,1.5c2.5,0.7,4.8,1.5,6.8,2.4c2.1,0.9,3.9,1.7,5.4,2.4v20.3h-2.5c-1-0.9-2.4-2-4-3.2s-3.4-2.5-5.4-3.6
			c-2.1-1.2-4.3-2.2-6.7-3s-5-1.2-7.7-1.2c-3,0-5.9,0.5-8.6,1.5c-2.7,0.9-5.3,2.5-7.6,4.7c-2.2,2.1-4,5-5.4,8.5
			c-1.3,3.5-2,7.8-2,12.8c0,5.2,0.7,9.6,2.2,13.1s3.4,6.3,5.6,8.3c2.3,2.1,4.8,3.5,7.6,4.4s5.6,1.3,8.3,1.3c2.6,0,5.2-0.4,7.7-1.2
			c2.6-0.8,5-1.9,7.1-3.2c1.8-1.1,3.5-2.2,5.1-3.5c1.6-1.2,2.9-2.3,3.9-3.2h2.2v20c-2.1,0.9-4.1,1.8-6,2.6s-3.9,1.5-6,2.1
			c-2.7,0.8-5.3,1.4-7.7,1.8C313.9,583.2,310.6,583.4,306.4,583.4L306.4,583.4z"/>
		<path id="path4526" class="st0" d="M433.3,540c0,13.3-3.8,23.9-11.5,31.8c-7.6,7.8-18.2,11.7-31.7,11.7c-13.4,0-24-3.9-31.6-11.7
			c-7.6-7.9-11.5-18.5-11.5-31.8c0-13.4,3.8-24.1,11.5-31.8c7.6-7.8,18.2-11.7,31.6-11.7c13.4,0,23.9,3.9,31.6,11.7
			C429.5,516,433.3,526.6,433.3,540L433.3,540z M404.7,561.2c2.1-2.5,3.6-5.5,4.7-9c1-3.5,1.5-7.6,1.5-12.2c0-5-0.6-9.3-1.7-12.8
			c-1.2-3.5-2.7-6.4-4.5-8.5c-1.9-2.2-4.1-3.9-6.6-4.9s-5.1-1.5-7.7-1.5c-2.7,0-5.3,0.5-7.7,1.5s-4.6,2.6-6.6,4.8
			c-1.9,2.1-3.4,5-4.6,8.7c-1.2,3.7-1.7,7.9-1.7,12.8c0,5,0.6,9.2,1.7,12.7c1.2,3.5,2.7,6.3,4.5,8.5c1.9,2.2,4.1,3.8,6.6,4.9
			c2.5,1,5.1,1.6,7.9,1.6c2.8,0,5.4-0.5,7.9-1.6C400.6,565.1,402.8,563.4,404.7,561.2L404.7,561.2z"/>
		<path id="path4528" class="st0" d="M525.7,581.8h-20.8l-35.5-57.4v57.4h-19.8v-83.6h25.8l30.5,47.9v-47.9h19.8V581.8z"/>
	</g>
</g>
</svg>
